# AST/ASF file generated using VICON BodyLanguage
# -----------------------------------------------
:version 1.10
:name VICON
:units
  mass 1.0
  length 0.45
  angle deg
:documentation
   .ast/.asf automatically generated from VICON data using
   VICON BodyBuilder and BodyLanguage model FoxedUp or BRILLIANT.MOD
:root
   order TX TY TZ RX RY RZ
   axis XYZ
   position 0 0 0  
   orientation 0 0 0 
:bonedata
  begin
     id 1 
     name lhipjoint
     direction 0.561001 -0.76473 0.316963 
     length 2.4722 
     axis 0 0 0  XYZ
  end
  begin
     id 2 
     name lfemur
     direction 0.34202 -0.939693 0  
     length 7.59403  
     axis 0 0 20  XYZ
    dof rx ry rz
    limits (-160.0 20.0)
           (-70.0 70.0)
           (-60.0 70.0)
  end
  begin
     id 3 
     name ltibia
     direction 0.34202 -0.939693 0   
     length 7.89655   
     axis 0 0 20   XYZ
    dof rx
    limits (-10.0 170.0)
  end
  begin
     id 4 
     name lfoot
     direction 0.061296 -0.168409 0.98381   
     length 2.73287   
     axis -90 7.62852e-016 20   XYZ
    dof rx rz
    limits (-45.0 90.0)
           (-70.0 20.0)
  end
  begin
     id 5 
     name ltoes
     direction 1.53547e-011 -4.21984e-011 1   
     length 1.37057   
     axis -90 7.62852e-016 20   XYZ
    dof rx
    limits (-90.0 20.0)
  end
  begin
     id 6 
     name rhipjoint
     direction -0.559611 -0.765599 0.317323   
     length 2.46939  
     axis 0 0 0  XYZ 
  end
  begin
     id 7 
     name rfemur
     direction -0.34202 -0.939693 0   
     length 7.53712   
     axis 0 0 -20   XYZ
    dof rx ry rz
    limits (-160.0 20.0)
           (-70.0 70.0)
           (-70.0 60.0)
  end
  begin
     id 8 
     name rtibia
     direction -0.34202 -0.939693 0   
     length 8.12549   
     axis 0 0 -20   XYZ
    dof rx
    limits (-10.0 170.0)
 end
 begin
     id 9 
     name rfoot
     direction -0.066984 -0.184037 0.980634   
     length 2.67541  
     axis -90 -7.62852e-016 -20   XYZ
    dof rx rz
    limits (-45.0 90.0)
           (-20.0 70.0)
  end
  begin
     id 10 
     name rtoes
     direction -1.53549e-011 -4.21786e-011 1   
     length 1.34085   
     axis -90 -7.62852e-016 -20   XYZ
    dof rx
    limits (-90.0 20.0)
  end
  begin
     id 11 
     name lowerback
     direction -0.0522728 0.992594 -0.109658   
     length 2.05633   
     axis 0 0 0   XYZ
    dof rx ry rz
    limits (-20.0 45.0)
           (-30.0 30.0)
           (-30.0 30.0)
  end
  begin
     id 12 
     name upperback
     direction 0.00589338 0.999977 0.00335704   
     length 2.05845   
     axis 0 0 0   XYZ
    dof rx ry rz
    limits (-20.0 45.0)
           (-30.0 30.0)
           (-30.0 30.0)
  end
  begin
     id 13 
     name thorax
     direction 0.0292928 0.998059 0.0549487   
     length 2.09281   
     axis 0 0 0   XYZ
    dof rx ry rz
    limits (-20.0 45.0)
           (-30.0 30.0)
           (-30.0 30.0)
  end
  begin
     id 14 
     name lowerneck
     direction 0.0356368 0.980775 0.191858   
     length 1.84767   
     axis 0 0 0   XYZ
    dof rx ry rz
    limits (-20.0 45.0)
           (-30.0 30.0)
           (-30.0 30.0)
  end
  begin
     id 15 
     name upperneck
     direction -0.0227605 0.98931 -0.14404   
     length 1.89582   
     axis 0 0 0   XYZ
    dof rx ry rz
    limits (-20.0 45.0)
           (-30.0 30.0)
           (-30.0 30.0)
  end
  begin
     id 16
     name head
     direction -0.00932985 0.997511 -0.0698904  
     length 1.90213  
     axis 0 0 0   XYZ
    dof rx ry rz
    limits (-20.0 45.0)
           (-30.0 30.0)
           (-30.0 30.0)
  end
  begin
     id 17 
     name lclavicle
     direction 0.873442 0.479511 0.0846686  
     length 3.41193  
     axis 0 0 0   XYZ
    dof ry rz
    limits (-20.0 10.0)
           (0.0 20.0)
  end
  begin
     id 18 
     name lhumerus
     direction 1 -4.4897e-011 -5.62117e-018   
     length 5.59864   
     axis 180 -30 -90   XYZ
    dof rx ry rz
    limits (-60.0 90.0)
           (-90.0 90.0)
           (-90.0 90.0)
  end
  begin
     id 19
     name lradius
     direction 1 -4.48966e-011 -6.26295e-027   
     length 3.59542   
     axis 180 -30 -90   XYZ
    dof rx
    limits (-10.0 170.0)
  end
  begin
     id 20
     name lwrist
     direction 1 -4.48947e-011 -1.74096e-026   
     length 1.79771   
     axis 1.04567e-014 90 90   XYZ
    dof ry
    limits (-180.0 0.0)
 end
  begin
     id 21 
     name lhand
     direction 1 -4.49085e-011 -3.48469e-026   
     length 0.572014   
     axis 2.22196e-014 90 90   XYZ
    dof rx rz
    limits (-90.0 90.0)
           (-45.0 45.0)
  end
  begin
     id 22 
     name lfingers
     direction 1 -4.48884e-011 -6.96135e-026   
     length 0.461173   
     axis 4.44383e-014 90 90   XYZ
    dof rx
    limits (0.0 90.0)
  end
  begin
     id 23
     name lthumb
     direction 0.707107 -6.34976e-011 0.707107   
     length 0.662154   
     axis -90 45 -5.4397e-014   XYZ
    dof rx rz
    limits (-45.0 45.0)
           (-45.0 45.0)
  end
  begin
     id 24 
     name rclavicle
     direction -0.890242 0.443271 0.104786   
     length 3.46753  
     axis 0 0 0   XYZ 
    dof ry rz
    limits (-10.0 20.0)
           (-20.0 0.0)
  end
  begin
     id 25 
     name rhumerus
     direction -1 -4.48963e-011 -5.41723e-018  
     length 5.8094   
     axis 180 30 90   XYZ
    dof rx ry rz
    limits (-90.0 60.0)
           (-90.0 90.0)
           (-90.0 90.0)
  end
  begin
     id 26 
     name rradius
     direction -1 -4.48958e-011 -6.51059e-027   
     length 3.66953   
     axis 180 30 90   XYZ
    dof rx
    limits (-10.0 170.0)
  end
  begin
     id 27 
     name rwrist
     direction -1 -4.48975e-011 -1.74124e-026   
     length 1.83476   
     axis 1.04567e-014 -90 -90   XYZ
    dof ry
    limits (-180.0 0.0)
  end
  begin
     id 28
     name rhand
     direction -1 -4.49013e-011 -3.48326e-026   
     length 0.57843   
     axis 2.22196e-014 -90 -90   XYZ
    dof rx rz
    limits (-90.0 90.0)
           (-45.0 45.0)
  end
  begin
     id 29
     name rfingers
     direction -1 -4.49023e-011 -6.9669e-026   
     length 0.466345   
     axis 4.44383e-014 -90 -90   XYZ
    dof rx
    limits (0.0 90.0)
  end
  begin
     id 30
     name rthumb
     direction -0.707107 -6.34926e-011 0.707107   
     length 0.669581   
     axis -90 -45 5.4397e-014   XYZ
    dof rx rz
    limits (-45.0 45.0)
           (-45.0 45.0)
  end
:hierarchy
  begin
    root lhipjoint rhipjoint lowerback
    lhipjoint lfemur
    lfemur ltibia
    ltibia lfoot
    lfoot ltoes
    rhipjoint rfemur
    rfemur rtibia
    rtibia rfoot
    rfoot rtoes
    lowerback upperback
    upperback thorax
    thorax lowerneck lclavicle rclavicle
    lowerneck upperneck
    upperneck head
    lclavicle lhumerus
    lhumerus lradius
    lradius lwrist
    lwrist lhand lthumb
    lhand lfingers
    rclavicle rhumerus
    rhumerus rradius
    rradius rwrist
    rwrist rhand rthumb
    rhand rfingers
  end

#!OML:ASF H:\SkateBoarding\Project 1\Capture day 1\Session 1\Skater.ASF
:FULLY-SPECIFIED
:DEGREES
288
root 3.37723 19.5872 37.3566 2.56734 45.7406 -2.5232
lowerback 7.9992 0.778626 -2.88995
upperback -0.62757 0.799953 0.775324
thorax -5.19747 0.487738 2.33468
lowerneck -7.42821 -0.71032 0.598884
upperneck 45.8946 5.8057 -11.0389
head 19.4621 1.63086 -4.41822
rclavicle 6.1996e-014 -4.96962e-015
rhumerus -26.789 -16.5965 -68.5164
rradius 27.3188
rwrist 3.75086
rhand -31.1738 -6.29675
rfingers 7.12502
rthumb -4.451 -36.23
lclavicle 6.1996e-014 -4.96962e-015
lhumerus -19.8317 -12.1368 77.3303
lradius 41.104
lwrist 25.0469
lhand -21.725 11.4755
lfingers 7.12502
lthumb 4.67429 41.4039
rfemur -18.3874 -4.24589 23.5429
rtibia 28.254
rfoot -23.4489 8.97225
rtoes -0.698506
lfemur -16.084 -21.285 -2.6822
ltibia 26.6018
lfoot -41.3707 14.3298
ltoes -20.3253
289
root 3.30981 19.5947 37.4198 2.6215 45.795 -2.37278
lowerback 7.93199 0.777589 -2.82042
upperback -0.653441 0.808224 0.800689
thorax -5.18637 0.490387 2.32134
lowerneck -7.41775 -0.697326 0.634523
upperneck 45.9412 5.77934 -10.9405
head 19.4806 1.64101 -4.38181
rclavicle -9.16149e-014 -1.70955e-014
rhumerus -26.9011 -16.5606 -68.2567
rradius 27.4355
rwrist 3.64614
rhand -31.2135 -6.35087
rfingers 7.12502
rthumb -4.48933 -36.2833
lclavicle -9.16149e-014 -1.70955e-014
lhumerus -19.9428 -12.0511 77.155
lradius 41.5725
lwrist 25.5466
lhand -22.1613 11.6284
lfingers 7.12502
lthumb 4.25299 41.5657
rfemur -18.1979 -4.21361 23.3815
rtibia 27.9991
rfoot -23.5635 8.82529
rtoes -0.684389
lfemur -15.9729 -21.4486 -2.82642
ltibia 26.3384
lfoot -41.2887 14.4243
ltoes -20.3054
290
root 3.24231 19.6021 37.483 2.65737 45.8587 -2.23732
lowerback 7.86521 0.774892 -2.75103
upperback -0.679067 0.81413 0.825223
thorax -5.17507 0.491854 2.30751
lowerneck -7.40768 -0.686526 0.677166
upperneck 45.9843 5.74673 -10.8427
head 19.4961 1.64965 -4.34774
rclavicle -5.86042e-014 7.95139e-016
rhumerus -27.0245 -16.5472 -68.0072
rradius 27.5539
rwrist 3.55763
rhand -31.2581 -6.397
rfingers 7.12502
rthumb -4.53239 -36.3285
lclavicle -5.86042e-014 7.95139e-016
lhumerus -20.0744 -11.9761 76.999
lradius 42.038
lwrist 25.9998
lhand -22.555 11.7709
lfingers 7.12502
lthumb 3.87286 41.7155
rfemur -18.0089 -4.19263 23.2422
rtibia 27.759
rfoot -23.6825 8.65137
rtoes -0.703589
lfemur -15.8545 -21.6352 -2.95181
ltibia 26.0678
lfoot -41.1933 14.5346
ltoes -20.2927
291
root 3.17467 19.6094 37.5456 2.67787 45.9242 -2.1155
lowerback 7.79971 0.772403 -2.6803
upperback -0.704214 0.820281 0.848895
thorax -5.16396 0.49339 2.292
lowerneck -7.40001 -0.676921 0.719553
upperneck 46.0222 5.71099 -10.7448
head 19.5083 1.65675 -4.31366
rclavicle 1.03269e-013 5.56597e-015
rhumerus -27.1551 -16.5509 -67.7665
rradius 27.6723
rwrist 3.47764
rhand -31.3048 -6.43399
rfingers 7.12502
rthumb -4.57742 -36.3645
lclavicle 1.03269e-013 5.56597e-015
lhumerus -20.2266 -11.9197 76.8647
lradius 42.5011
lwrist 26.4142
lhand -22.9099 11.9056
lfingers 7.12502
lthumb 3.53011 41.8561
rfemur -17.8266 -4.17936 23.1234
rtibia 27.5367
rfoot -23.8011 8.44793
rtoes -0.765486
lfemur -15.7304 -21.8354 -3.06037
ltibia 25.7901
lfoot -41.0803 14.6622
ltoes -20.2947
292
root 3.10671 19.6166 37.6077 2.68296 45.9878 -2.0105
lowerback 7.7343 0.76855 -2.6122
upperback -0.729021 0.824461 0.875995
thorax -5.15251 0.494071 2.28179
lowerneck -7.3944 -0.665068 0.760452
upperneck 46.0531 5.67927 -10.6504
head 19.5171 1.66451 -4.27985
rclavicle 2.74571e-014 1.32192e-014
rhumerus -27.2867 -16.567 -67.5319
rradius 27.7861
rwrist 3.41749
rhand -31.3434 -6.46412
rfingers 7.12502
rthumb -4.61477 -36.3939
lclavicle 2.74571e-014 1.32192e-014
lhumerus -20.3977 -11.8632 76.7525
lradius 42.9573
lwrist 26.7835
lhand -23.2221 12.023
lfingers 7.12502
lthumb 3.22862 41.9783
rfemur -17.6546 -4.16425 23.0261
rtibia 27.3339
rfoot -23.9202 8.21967
rtoes -0.864551
lfemur -15.6041 -22.0406 -3.14912
ltibia 25.509
lfoot -40.9503 14.7996
ltoes -20.3077
293
root 3.03842 19.6235 37.669 2.67849 46.0424 -1.91724
lowerback 7.66845 0.767904 -2.5461
upperback -0.753321 0.832601 0.901954
thorax -5.14052 0.496736 2.27104
lowerneck -7.39229 -0.652716 0.805673
upperneck 46.0773 5.64631 -10.5578
head 19.5222 1.672 -4.24743
rclavicle 4.70995e-014 6.41081e-015
rhumerus -27.4212 -16.5844 -67.3082
rradius 27.8972
rwrist 3.34735
rhand -31.3799 -6.48421
rfingers 7.12502
rthumb -4.64998 -36.4132
lclavicle 4.70995e-014 6.41081e-015
lhumerus -20.5822 -11.8151 76.6629
lradius 43.4051
lwrist 27.1133
lhand -23.4926 12.1235
lfingers 7.12502
lthumb 2.96741 42.0826
rfemur -17.4952 -4.14224 22.9454
rtibia 27.1489
rfoot -24.0387 7.97362
rtoes -0.990951
lfemur -15.4781 -22.2419 -3.22265
ltibia 25.2291
lfoot -40.8076 14.9443
ltoes -20.3239
